<?xml version="1.0" encoding="utf-8"?>
<!-- Generator: Adobe Illustrator 22.1.0, SVG Export Plug-In . SVG Version: 6.00 Build 0)  -->
<svg version="1.1" id="Layer_1" xmlns="http://www.w3.org/2000/svg" xmlns:xlink="http://www.w3.org/1999/xlink" x="0px" y="0px"
	 viewBox="0 0 233.4 37.3" style="enable-background:new 0 0 233.4 37.3;" xml:space="preserve">
<style type="text/css">
	.st0{fill:url(#SVGID_1_);}
	.st1{fill:#FFFFFF;}
	.st2{fill:#005A9C;}
	.st3{fill:url(#SVGID_2_);}
	.st4{fill:#7690B7;}
	.st5{fill:#09377C;}
</style>
<linearGradient id="SVGID_1_" gradientUnits="userSpaceOnUse" x1="102.95" y1="38.642" x2="102.95" y2="9.3386" gradientTransform="matrix(1 0 0 -1 0 40)">
	<stop  offset="0.1296" style="stop-color:#002C59"/>
	<stop  offset="0.1644" style="stop-color:#003A6C"/>
	<stop  offset="0.2112" style="stop-color:#004A83"/>
	<stop  offset="0.2595" style="stop-color:#005696"/>
	<stop  offset="0.3089" style="stop-color:#0060A4"/>
	<stop  offset="0.3598" style="stop-color:#0066AE"/>
	<stop  offset="0.4133" style="stop-color:#006AB4"/>
	<stop  offset="0.4735" style="stop-color:#006CB7"/>
	<stop  offset="0.6786" style="stop-color:#006BB5"/>
	<stop  offset="0.7567" style="stop-color:#0068B1"/>
	<stop  offset="0.8131" style="stop-color:#0064AA"/>
	<stop  offset="0.8591" style="stop-color:#005EA1"/>
	<stop  offset="0.8987" style="stop-color:#005695"/>
	<stop  offset="0.9339" style="stop-color:#004B85"/>
	<stop  offset="0.9659" style="stop-color:#003E72"/>
	<stop  offset="0.9944" style="stop-color:#002F5D"/>
	<stop  offset="1" style="stop-color:#002C59"/>
</linearGradient>
<path class="st0" d="M179.9,10.6v7.1l6.1-0.8l0,0l9.5,7.3c-0.5,1.4-1.4,4.1-3.2,9.7H7.2c-2.1,0-3.8-1.6-3.8-3.7
	c0-0.2,0.1-0.7,0.1-0.9c1.3-4.9,6.1-20.6,7-23L10.6,6c0.5-1.5,2-2.6,3.7-2.6h1.2c0.9,0,187,0,187,0l-3,9.2h-13.3L179.9,10.6z"/>
<g id="letters">
	<polygon class="st1" points="70.9,5.4 71.2,7.1 71.2,30.4 70.9,32.1 78.4,32.1 78,30.4 78,14.6 82.7,30.4 82.7,32.1 91.5,32.1 
		91.5,30.4 96.1,14.6 96.1,30.4 95.7,32.1 103.3,32.1 103.1,30.4 103.1,7.1 103.3,5.4 90.5,5.4 90.5,7.1 87.1,22.5 83.6,7.1 
		83.6,5.4 	"/>
	<path class="st1" d="M134.5,5.4c0.2,0.6,0.6,0.5,0.6,1.7c0,1-0.1,13.7,0.4,18c0.1,1.2,0.7,4.1,2.7,5.5c2.9,2.1,6.1,2.5,9.7,2.4
		c2.7-0.1,5.4-0.4,8.1-2.3c2.5-1.8,2.4-4.6,2.6-5.7c0.3-1.3,0.4-18,0.4-18l0.5-1.7h-8.2l0.4,1.8c0,0,0.2,11.5-0.1,15.8
		c-0.1,0.9-1,2.9-4,3.2c-3.4,0.3-4.3-2.3-4.6-3.1c-0.3-0.7-0.5-16.1-0.5-16.1l0.4-1.7h-8.4V5.4z"/>
	<path class="st1" d="M181.7,22.6c-0.1-0.3,2.2-0.5,3.2-2.1c0.6-1,1-2.3,1.2-3.6l0,0l-5.6-4.3h5.7l0,0c-0.1-1.1-0.2-2.9-1.1-4.2
		c-0.7-2.4-4.3-3-4.3-3H162l0.4,1.7v23.3l-0.4,1.7h7.5l-0.4-1.7v-7.3h4.9l4.2,7.9c0,0,0.3,0.9,0.2,1.1c1.4,0,8.4,0,8.4,0
		S181.9,23.7,181.7,22.6z M176.1,17.3h-7.2v-6.4h7.4c1.7,0.4,2.6,1.5,2.5,3.5S177.7,17.1,176.1,17.3z"/>
	<path class="st1" d="M131.7,13.7c-0.2-1-0.4-2.5-0.8-3.6c-0.4-0.8-0.7-1.6-1.3-2.2c-0.5-0.6-1.1-1.3-1.9-1.8
		c-0.7-0.4-1.5-0.8-2.5-1.1c-1.6-0.4-3.3-0.7-5.6-0.7c-1.2,0-2.4,0.1-3.7,0.2c-0.5,0.1-1.1,0.1-1.8,0.3c-0.4,0.1-1.1,0.3-1.6,0.5
		c-0.3,0.2-0.8,0.3-1.2,0.6c-1.4,0.8-2.7,2.1-3.4,4c-0.4,1.2-0.9,2.3-1,3.9c-0.2,1.5-0.4,3.3-0.3,5.3s0.1,3.6,0.5,5.6
		c0.1,0.5,0.3,1.1,0.5,1.8c0.2,0.5,0.5,1,0.8,1.6c0.2,0.4,0.5,0.8,0.8,1.3c0.2,0.3,0.6,0.7,1,1.1c0.3,0.3,0.7,0.6,1.2,0.9
		c0.5,0.2,0.9,0.6,1.5,0.8c0.5,0.2,1,0.4,1.7,0.6c1.6,0.3,3.5,0.7,5.8,0.4c0.6-0.1,1.7,0,2.3-0.2c0.8-0.2,1.5-0.3,2.2-0.5
		c1.5-0.4,3-1.2,4.1-2.4c0.6-0.7,1.2-1.4,1.6-2.5c0.4-1.1,0.8-2.1,1-3.7c0.2-1.5,0.4-3,0.5-5.1C131.9,17.7,132,15.7,131.7,13.7z
		 M124.4,19.2c0,0-0.2,3.7-0.7,4.7c-0.4,0.9-0.9,1.4-1.5,1.8c-0.4,0.2-2.6,0.6-2.9,0.6c-1,0.2-3.3-0.8-3.8-1.2
		c-0.5-0.4-1.2-1.7-1.3-2.4c-0.1-0.5-0.3-4.1-0.3-4.1s0-3.5,0.6-5.3c0.3-0.8,0.8-1.3,1.3-1.6c0.8-0.5,2.3-0.9,3.6-0.9
		c1.7,0,2.5,0.4,3.4,1c0.5,0.4,1.2,1.3,1.4,1.9C124.8,16,124.4,19.2,124.4,19.2z"/>
	<path class="st1" d="M63.5,22.6c-0.1-0.3,2.2-0.5,3.2-2.1c1.3-2.1,1.5-5.8,1.4-6.7c0-0.5,0.1-3.3-1.1-5.4c-0.7-2.4-4.3-3-4.3-3
		H43.9l0.4,1.7v23.3l-0.4,1.7h7.5L51,30.4v-7.3h4.9l4.2,7.9c0,0,0.3,0.9,0.3,1.2c1.4,0,8.4,0,8.4,0S63.7,23.7,63.5,22.6z M57.9,17.3
		h-7.2v-6.4h7.4c1.7,0.4,2.6,1.5,2.5,3.5C60.5,16.4,59.4,17.1,57.9,17.3z"/>
	<path class="st1" d="M41.9,30.3l-7-23.2V5.4H23.5v1.7L15.6,30l-0.9,2.1h7.7l-0.1-1.3l1.9-4.5H33l1.4,4.5l0.2,1.4h8.2L41.9,30.3z
		 M25.7,20.9L29,10.5l2.6,10.4H25.7z"/>
	<path class="st1" d="M189.4,27.7c0.5,0,0.8-0.2,0.8-0.8c0-0.7-0.4-0.9-1.2-0.9h-1.1v3h0.6v-1.3h0.4l0.7,1.3h0.6L189.4,27.7z
		 M188.5,27.3v-0.8h0.5c0.3,0,0.6,0,0.6,0.4s-0.3,0.4-0.6,0.4H188.5z M189.4,27.7c0.5,0,0.8-0.2,0.8-0.8c0-0.7-0.4-0.9-1.2-0.9h-1.1
		v3h0.6v-1.3h0.4l0.7,1.3h0.6L189.4,27.7z M188.5,27.3v-0.8h0.5c0.3,0,0.6,0,0.6,0.4s-0.3,0.4-0.6,0.4H188.5z M189.4,27.7
		c0.5,0,0.8-0.2,0.8-0.8c0-0.7-0.4-0.9-1.2-0.9h-1.1v3h0.6v-1.3h0.4l0.7,1.3h0.6L189.4,27.7z M188.5,27.3v-0.8h0.5
		c0.3,0,0.6,0,0.6,0.4s-0.3,0.4-0.6,0.4H188.5z M189.4,27.7c0.5,0,0.8-0.2,0.8-0.8c0-0.7-0.4-0.9-1.2-0.9h-1.1v3h0.6v-1.3h0.4
		l0.7,1.3h0.6L189.4,27.7z M188.5,27.3v-0.8h0.5c0.3,0,0.6,0,0.6,0.4s-0.3,0.4-0.6,0.4H188.5z M189.4,27.7c0.5,0,0.8-0.2,0.8-0.8
		c0-0.7-0.4-0.9-1.2-0.9h-1.1v3h0.6v-1.3h0.4l0.7,1.3h0.6L189.4,27.7z M188.5,27.3v-0.8h0.5c0.3,0,0.6,0,0.6,0.4s-0.3,0.4-0.6,0.4
		H188.5z M189.4,27.7c0.5,0,0.8-0.2,0.8-0.8c0-0.7-0.4-0.9-1.2-0.9h-1.1v3h0.6v-1.3h0.4l0.7,1.3h0.6L189.4,27.7z M188.5,27.3v-0.8
		h0.5c0.3,0,0.6,0,0.6,0.4s-0.3,0.4-0.6,0.4H188.5z M189.4,27.7c0.5,0,0.8-0.2,0.8-0.8c0-0.7-0.4-0.9-1.2-0.9h-1.1v3h0.6v-1.3h0.4
		l0.7,1.3h0.6L189.4,27.7z M188.5,27.3v-0.8h0.5c0.3,0,0.6,0,0.6,0.4s-0.3,0.4-0.6,0.4H188.5z M189,24.8c-1.5,0-2.8,1-2.8,2.7
		c0,1.6,1.3,2.7,2.8,2.7s2.8-1,2.8-2.7C191.7,25.9,190.4,24.8,189,24.8z M189,29.6c-1.1,0-2-0.9-2-2.1s0.9-2.1,2-2.1s2,0.9,2,2.1
		S190.1,29.6,189,29.6z M190.2,26.9c0-0.7-0.4-0.9-1.2-0.9h-1.1v3h0.6v-1.3h0.4l0.7,1.3h0.6l-0.8-1.3
		C189.9,27.6,190.2,27.4,190.2,26.9z M188.5,27.3v-0.8h0.5c0.3,0,0.6,0,0.6,0.4s-0.3,0.4-0.6,0.4H188.5z M189.4,27.7
		c0.5,0,0.8-0.2,0.8-0.8c0-0.7-0.4-0.9-1.2-0.9h-1.1v3h0.6v-1.3h0.4l0.7,1.3h0.6L189.4,27.7z M188.5,27.3v-0.8h0.5
		c0.3,0,0.6,0,0.6,0.4s-0.3,0.4-0.6,0.4H188.5z M189.4,27.7c0.5,0,0.8-0.2,0.8-0.8c0-0.7-0.4-0.9-1.2-0.9h-1.1v3h0.6v-1.3h0.4
		l0.7,1.3h0.6L189.4,27.7z M188.5,27.3v-0.8h0.5c0.3,0,0.6,0,0.6,0.4s-0.3,0.4-0.6,0.4H188.5z M189.4,27.7c0.5,0,0.8-0.2,0.8-0.8
		c0-0.7-0.4-0.9-1.2-0.9h-1.1v3h0.6v-1.3h0.4l0.7,1.3h0.6L189.4,27.7z M188.5,27.3v-0.8h0.5c0.3,0,0.6,0,0.6,0.4s-0.3,0.4-0.6,0.4
		H188.5z M189.4,27.7c0.5,0,0.8-0.2,0.8-0.8c0-0.7-0.4-0.9-1.2-0.9h-1.1v3h0.6v-1.3h0.4l0.7,1.3h0.6L189.4,27.7z M188.5,27.3v-0.8
		h0.5c0.3,0,0.6,0,0.6,0.4s-0.3,0.4-0.6,0.4H188.5z M189.4,27.7c0.5,0,0.8-0.2,0.8-0.8c0-0.7-0.4-0.9-1.2-0.9h-1.1v3h0.6v-1.3h0.4
		l0.7,1.3h0.6L189.4,27.7z M188.5,27.3v-0.8h0.5c0.3,0,0.6,0,0.6,0.4s-0.3,0.4-0.6,0.4H188.5z"/>
</g>
<polygon class="st2" points="197.6,23.6 185.5,14.4 200.8,14.4 "/>
<linearGradient id="SVGID_2_" gradientUnits="userSpaceOnUse" x1="186.1984" y1="27.6335" x2="228.8365" y2="14.9225">
	<stop  offset="0.5072" style="stop-color:#005A9B"/>
	<stop  offset="0.6346" style="stop-color:#015897"/>
	<stop  offset="0.7478" style="stop-color:#05518D"/>
	<stop  offset="0.8556" style="stop-color:#0C457A"/>
	<stop  offset="0.9594" style="stop-color:#153461"/>
	<stop  offset="0.9904" style="stop-color:#182E58"/>
</linearGradient>
<path class="st3" d="M231.8,30.3c0,1.5-0.6,2.8-1.6,3.8c-0.2,0.2-0.5,0.5-0.8,0.7c-0.1,0.1-0.3,0.2-0.5,0.3
	c-0.1,0.1-0.2,0.1-0.3,0.2c-0.1,0-0.1,0-0.2,0.1c-0.1,0.1-0.2,0.1-0.4,0.1h-0.1c-0.1,0-0.2,0.1-0.3,0.1l0,0c0,0-0.1,0-0.2,0h-0.1
	c-0.1,0-0.1,0-0.2,0c-0.1,0-0.1,0-0.2,0c-0.1,0-0.1,0-0.2,0h-0.1c-0.1,0-0.3,0-0.5,0h-32.6l0,0l10.7-7.4l10.8,7.4l0,0l-3.8-13.2
	l10.5-8H209l-4.2-12.7H219c2.5,0,4.6,1.5,5.3,3.7l0.1,0.4c1,2.6,5.8,18.5,7.1,23.1C231.6,28.9,231.8,29.8,231.8,30.3z"/>
<polyline class="st4" points="209,14.4 200.8,14.4 204.8,1.7 "/>
<polygon class="st4" points="204.2,28.2 193.5,35.6 197.6,23.6 "/>
<g>
	<path class="st5" d="M0.2,28.6c1.3-4.6,6-20.5,7.1-23.3l0.1-0.3C8.4,2,11.2,0,14.3,0h1.2c0.8,0,155,0,188.1,0l0,0H0v29.9
		C0,29.4,0.2,28.7,0.2,28.6z"/>
	<path class="st5" d="M217.9,0h1.1c3.2,0,5.9,2,6.9,4.9l0.1,0.3c1.2,3,5.9,18.9,7.1,23.3c0.1,0.2,0.2,0.9,0.2,1.5V0H208
		C211.7,0,217.3,0,217.9,0z"/>
	<path class="st5" d="M226.3,37.3h7.1v-6.7C233.2,34.3,230.1,37.2,226.3,37.3z"/>
	<path class="st5" d="M0,30.6v6.7h7.1C3.3,37.2,0.2,34.3,0,30.6z"/>
</g>
</svg>
