<?xml version="1.0" encoding="utf-8"?>
<!-- Generator: Adobe Illustrator 22.1.0, SVG Export Plug-In . SVG Version: 6.00 Build 0)  -->
<svg version="1.1" id="Layer_1" xmlns="http://www.w3.org/2000/svg" xmlns:xlink="http://www.w3.org/1999/xlink" x="0px" y="0px"
	 viewBox="0 0 233.4 37.3" style="enable-background:new 0 0 233.4 37.3;" xml:space="preserve">
<style type="text/css">
	.st0{fill:#C39909;}
</style>
<g>
	<path class="st0" d="M233.2,28.5c-1.2-4.3-6-20.3-7.1-23.3L226,4.9C225,2,222.2,0,219.1,0h-1.1c-0.8,0-11.8,0-13.1,0h-1.2l0,0
		C170.5,0,16.3,0,15.5,0h-1.2c-3.1,0-5.9,2-6.9,4.9L7.4,5.2C6.2,8.1,1.5,23.9,0.2,28.6c0,0.2-0.2,1.1-0.2,1.7c0,3.9,3.2,7,7.2,7h219
		c4,0,7.2-3.2,7.2-7C233.4,29.6,233.2,28.7,233.2,28.5z M7.2,33.9c-2.1,0-3.8-1.6-3.8-3.7c0-0.2,0.1-0.7,0.1-0.9
		c1.3-4.9,6.1-20.6,7-23L10.6,6c0.5-1.5,2-2.5,3.7-2.5h1.2c0.9,0,171.6,0,187,0l-3,9.2h-19.1l5.6,4.3l4.4,3.4
		c2.5,1.9,4.1,3.2,5.1,3.9c-0.5,1.4-1.4,4.1-3.2,9.7H7.2z M226.2,35.6h-11.1l0,0l0,0h-21.5c0,0,0,0,0,0l3.9-12c0,0-8.6-6.5-11.3-8.6
		c-0.5-0.4-0.8-0.6-0.8-0.6h15.4l0,0h0l4.1-12.6l0,0l0,0c0,0,12.8,0,13,0h1.2c2.5,0,4.6,1.5,5.3,3.7l0.1,0.3
		c1,2.6,5.8,18.5,7.1,23.2c0,0,0.2,0.8,0.2,1.3C231.8,33.2,229.3,35.6,226.2,35.6z"/>
</g>
<g>
	<polygon class="st0" points="221.8,14.4 211.3,22.4 215.2,35.6 215.1,35.6 197.6,23.6 200.8,14.4 	"/>
	<polygon class="st0" points="215.2,35.6 215.1,35.6 215.2,35.6 	"/>
</g>
</svg>
